<svg xmlns="http://www.w3.org/2000/svg" width="720" height="280" viewBox="0 0 720 280" role="img" aria-labelledby="t">
 <title id="t">Tenant separation  -  illustrative</title>
 <rect width="720" height="280" fill="#0f172a" rx="8"/>
 <text x="24" y="28" fill="#94a3b8" font-family="system-ui,sans-serif" font-size="12">Separation model  -  sample diagram</text>
 <rect x="240" y="48" width="240" height="48" rx="6" fill="#334155" stroke="#94a3b8"/>
 <text x="360" y="77" fill="#f1f5f9" font-family="system-ui,sans-serif" font-size="13" font-weight="600" text-anchor="middle">Platform core</text>
 <text x="360" y="92" fill="#94a3b8" font-family="system-ui,sans-serif" font-size="10" text-anchor="middle">identity  -  workflow config  -  routing</text>
 <line x1="360" y1="96" x2="360" y2="120" stroke="#64748b"/>
 <line x1="120" y1="120" x2="600" y2="120" stroke="#64748b"/>
 <line x1="120" y1="120" x2="120" y2="140" stroke="#64748b"/>
 <line x1="360" y1="120" x2="360" y2="140" stroke="#64748b"/>
 <line x1="600" y1="120" x2="600" y2="140" stroke="#64748b"/>
 <rect x="48" y="140" width="144" height="100" rx="6" fill="#1e293b" stroke="#475569"/>
 <text x="120" y="168" fill="#e2e8f0" font-family="system-ui,sans-serif" font-size="12" text-anchor="middle">Agency A DB</text>
 <text x="120" y="188" fill="#64748b" font-family="ui-monospace,monospace" font-size="9" text-anchor="middle">workers  -  docs</text>
 <rect x="288" y="140" width="144" height="100" rx="6" fill="#1e293b" stroke="#475569"/>
 <text x="360" y="168" fill="#e2e8f0" font-family="system-ui,sans-serif" font-size="12" text-anchor="middle">Agency B DB</text>
 <rect x="528" y="140" width="144" height="100" rx="6" fill="#1e293b" stroke="#475569"/>
 <text x="600" y="168" fill="#e2e8f0" font-family="system-ui,sans-serif" font-size="12" text-anchor="middle">Agency C DB</text>
 <text x="360" y="268" fill="#64748b" font-family="ui-monospace,monospace" font-size="10" text-anchor="middle">No cross-tenant reads in standard model</text>
</svg>
